<svg xmlns="http://www.w3.org/2000/svg" viewBox="0 0 475.11 111.56"><defs><style>.cls-1{fill:#fff}</style></defs><g id="_2D_Tagline" data-name="2D Tagline"><path class="cls-1" d="M86.21 4l-2.6 3.92c17.48 7.19 24.55 20.24 24.55 34.23 0 7-1.89 13.32-5.58 13.32H56.73c-6.25 0-8.1-2.22-5.3-7.77 5-9.9 20-28.83 29.3-40.21 1.36-1.66 2.47-4.28-2.39-5.58S65.32 0 58.51 0C24 0 0 18.65 0 42.68 0 64.8 20.84 85.45 58.43 85.45c16.61 0 37-4.67 48.53-17.76H97C85.75 77.86 71.06 80.18 58.51 80.18 28.18 80.18 9 64.43 9 42.68 9 22.62 30.72 4.61 58.14 4.61c3.28 0 4.35.7.88 5-7 8.7-19.54 26-25.42 36.05-6.31 10.84.13 19.64 14.29 19.64h57.35c3.54 0 5.56-2 7.62-5.68a34.91 34.91 0 0 0 4.24-16.94c0-16.3-12.23-31.29-30.89-38.68zM460.45 39.54h-38.89c1.26-5 5.13-8.39 12.37-8.39h37.21V22.8h-39.56c-22.55 0-27.92 16-27.92 25.09h48.17c6.61 0 6.61 8.91.22 8.91h-53.24v-34h-16v34h-26.64c-7.13 0-10.12-3.42-10.12-8.7V22.79h-25.7l-23 14.46-19.77-14.45h-56.95c-16.5 0-28.21 9.63-29.57 21.68h10.7a24.79 24.79 0 0 0-9.45 12.41h-33.7c-6.35 0-9.32-3.3-9.32-9.52V22.8H133.2v20.9c0 13.27 7.25 21.61 23.56 21.61h112.32l23.07-14.53L312 65.31h23.72l-30.83-22.56L330 27v23.85c0 7.41 9.59 14.46 18.33 14.46h112.21c19.46 0 19.38-25.77-.09-25.77zM266.2 56.89h-54.5c.55-4.55 2.91-9.08 10.35-9.08h33.79v-8.32h-45c.77-3.43 4.28-8.32 12.38-8.32H259v-4.62l25.65 18.73zM134.06 111.25V92.36h10.55v2.44h-8v6h7.79v2.43h-7.79v5.56h8.47v2.43zM163.68 111.25l-4.21-6.44c-.31-.47-.81-1.32-.81-1.32s-.49.83-.85 1.37l-4.19 6.39h-3l6.54-10-5.79-8.93h3.18l3.62 5.68c.29.44.6 1 .6 1a10.28 10.28 0 0 1 .62-1l3.61-5.64h3l-5.77 8.8 6.58 10.09zM179.44 103.83h-3.57v7.42h-2.59V92.36H179c3.83 0 6.18 2.54 6.18 5.83a5.8 5.8 0 0 1-5.74 5.64zm-.88-9h-2.69v6.59h2.85c2.17 0 3.72-1.21 3.72-3.36s-1.44-3.26-3.88-3.26zM192 111.25V92.36h10.6v2.44h-8v6h7.79v2.43h-7.79v5.56h8.46v2.43zM221.75 111.25l-7.63-8.82v8.82h-2.59V92.36h6.11a5.54 5.54 0 0 1 5.84 5.57 5.47 5.47 0 0 1-5.38 5.41l7 7.91zm-4.58-16.45h-3v6.49h3a3.34 3.34 0 0 0 3.67-3.47 3.31 3.31 0 0 0-3.67-3.02zM232.28 111.25V92.36h2.59v18.89zM244 111.25V92.36h10.56v2.44h-8v6h7.79v2.43h-7.79v5.56H255v2.43zM276.25 111.25l-9.92-13.68-.33-.52s.05.41.05.62v13.58h-2.59V92.36h2.2l9.78 13.43a4.93 4.93 0 0 1 .34.55V92.36h2.59v18.89zM294.44 111.56a9.45 9.45 0 0 1-9.27-9.75c0-5.46 3.94-9.76 9.37-9.76a8.45 8.45 0 0 1 7 3l-1.92 1.71a6.72 6.72 0 0 0-5-2.12c-3.67 0-6.73 2.85-6.73 7.17a6.91 6.91 0 0 0 6.63 7.27 7.28 7.28 0 0 0 5.54-2.62l1.86 1.61a9.1 9.1 0 0 1-7.48 3.49zM308.59 111.25V92.36h10.56v2.44h-8v6H319v2.43h-7.79v5.56h8.46v2.43zM348 111.25l-2.28-6.1h-6l-2.28 6.1h-2.75l7.25-18.89h1.66l7.29 18.89zm-5.15-13.81a4.73 4.73 0 0 1-.15-.52l-.13.49-2 5.3h4.22zM372.89 111.25V97.36a5.65 5.65 0 0 1 .06-.73 4.12 4.12 0 0 1-.26.44l-5.93 8h-1l-6-7.79a3.15 3.15 0 0 1-.26-.41 5.89 5.89 0 0 1 .05.7v13.68H357V92.36h2.2l7.12 9.24 6.91-9.24h2.3v18.89zM394.89 111.25l-2.28-6.1h-6l-2.27 6.1h-2.75l7.25-18.89h1.65l7.3 18.89zm-5.15-13.81c-.08-.21-.16-.52-.16-.52s-.07.31-.13.49l-2 5.3h4.22zM406.79 108.36a2.72 2.72 0 0 1-.31.38h10.02v2.53H402l9.89-15.88a6 6 0 0 1 .36-.5H403.63v-2.53h13.18zM423.79 111.25V92.36h2.59v18.89zM448.22 111.25l-9.91-13.68-.34-.52v14.2h-2.58V92.36h2.2l9.78 13.43a6.07 6.07 0 0 1 .33.55s-.05-.39-.05-.62V92.36h2.59v18.89zM466.07 111.56a9.68 9.68 0 0 1-9.57-9.75 9.46 9.46 0 0 1 9.6-9.76 10 10 0 0 1 7 2.56l-1.58 1.92a7.85 7.85 0 0 0-5.43-1.94c-3.81 0-6.86 2.87-6.86 7.24a7.19 7.19 0 0 0 7 7.2 5.57 5.57 0 0 0 5.57-3.81H466v-2.43h8.7a8.67 8.67 0 0 1-8.63 8.77z"/></g></svg>