<svg id="Layer_1" data-name="Layer 1" xmlns="http://www.w3.org/2000/svg" width="1042.4811mm" height="277.6001mm" viewBox="0 0 2955.0645 786.8979"><title>title</title><path d="M0,453.37V7.6626H97.06V367.166h169.854V453.37Z" fill="#fff"/><path d="M353.5,453.37V7.6626H656.811V93.8667H450.56V184.541H627.4375v86.2041H450.56V367.166H656.811V453.37Z" fill="#fff"/><path d="M1141.2109,453.37H1028.8262L932.4053,289.2627H930.49L836.623,453.37H731.9009L874.936,222.854,738.9248,7.6626H851.9482L938.791,158.36h1.9155l88.12-150.6978h104.7221L996.26,224.77Z" fill="#fff"/><path d="M1311.5054,7.6626V280.9619q0,47.2624,18.5175,70.56,18.5134,23.3173,61.9395,23.3071,43.4165,0,61.94-23.3071,18.5127-23.302,18.5175-70.56V7.6626h94.5054V270.7451q0,49.1778-9.2588,85.2461-9.2637,36.0836-30.331,59.3848-21.0726,23.3174-54.2769,34.4824-33.2094,11.1636-81.0957,11.1738-47.8908,0-81.0957-11.1738-33.2094-11.1651-54.2769-34.4824-21.0717-23.3013-30.331-59.3848-9.2637-36.0681-9.2588-85.2461V7.6626Z" fill="#fff"/><path d="M1822.3989,461.0322q-58.7563,0-99.6137-20.1338-40.8721-20.1444-69.6021-52.1215l63.855-64.5733q45.3326,50.63,111.7461,50.625,35.7539,0,53-14.5469,17.24-14.5473,17.2407-38.6123,0-18.3486-10.2168-30.6806-10.2216-12.3318-41.5059-16.7715l-44.06-5.6973q-70.8795-8.9494-103.7647-42.8325-32.8952-33.8834-32.8852-90.1455,0-30.0513,11.4941-54.9849a121.5919,121.5919,0,0,1,32.8853-42.8325q21.386-17.9,52.3608-27.8169Q1794.2977,0,1833.8926,0q50.436,0,88.7588,15.9937a180.2465,180.2465,0,0,1,65.7705,46.684l-64.4937,65.2417a129.4433,129.4433,0,0,0-38.6323-30.0219q-22.6735-11.688-57.15-11.6934-32.5664,0-48.53,11.374-15.969,11.3745-15.9639,31.5987,0,22.763,12.4517,32.875,12.4519,10.1169,40.5479,14.5273l44.06,7.0337q68.9634,10.8654,102.168,42.5137,33.1941,31.6377,33.2046,89.8056,0,31.968-11.4942,58.8067a125.9776,125.9776,0,0,1-33.5239,46.0258q-22.03,19.1852-54.5957,29.7217T1822.3989,461.0322Z" fill="#fff"/><rect y="560.8528" width="2955.0645" height="14.1732" fill="#fff"/><path d="M53.3159,696.9951v88.0264H29.55V696.9951H0V675.8877H82.8662v21.1074Z" fill="#fff"/><path d="M215.7651,740.3047H174.1758v44.7168H150.41V675.8877h23.7656v43.31h41.5893v-43.31h23.7657V785.0215H215.7651Z" fill="#fff"/><path d="M315.8774,785.0215V675.8877h74.2671v21.1074H339.6431v22.2022h43.31v21.1074h-43.31v23.6094h50.5014v21.1074Z" fill="#fff"/><path d="M557.127,675.8877h41.1206a54.3285,54.3285,0,0,1,19.7,3.44,39.7333,39.7333,0,0,1,15.1665,10.2408,46.8489,46.8489,0,0,1,9.6938,17.0424,84.3661,84.3661,0,0,1,0,47.6875,46.8243,46.8243,0,0,1-9.6938,17.0425,39.705,39.705,0,0,1-15.1665,10.2407,54.2755,54.2755,0,0,1-19.7,3.44H557.127Zm41.1206,88.0264q10.6311,0,16.7295-5.9414t6.0981-19.0752V722.0117q0-13.1337-6.0981-19.0752-6.0975-5.94-16.7295-5.9414h-17.355v66.919Z" fill="#fff"/><path d="M717.9175,785.0215V675.8877h74.2671v21.1074H741.6831v22.2022h43.31v21.1074h-43.31v23.6094h50.5015v21.1074Z" fill="#fff"/><path d="M900.3794,786.8979q-14.387,0-24.3906-4.93a55.7565,55.7565,0,0,1-17.0425-12.7622l15.6352-15.8111q11.1,12.3971,27.3614,12.3955,8.7546,0,12.9775-3.5615a11.7546,11.7546,0,0,0,4.2212-9.4546,11.39,11.39,0,0,0-2.5015-7.5122q-2.5026-3.02-10.163-4.1069L895.689,739.76q-17.3548-2.1915-25.4073-10.4878-8.0544-8.2969-8.0522-22.0728a31.7759,31.7759,0,0,1,2.8144-13.4634,29.7778,29.7778,0,0,1,8.0523-10.4878,37.5312,37.5312,0,0,1,12.8208-6.811,62.4714,62.4714,0,0,1,39.01,1.49,44.1315,44.1315,0,0,1,16.1044,11.4307L925.24,705.3335a31.6979,31.6979,0,0,0-9.4594-7.3511q-5.5518-2.8623-13.9937-2.8633-7.9739,0-11.8828,2.7852a8.9692,8.9692,0,0,0-3.9087,7.7368q0,5.5737,3.0488,8.05t9.9283,3.5567l10.7885,1.7226q16.8861,2.66,25.0162,10.41,8.1276,7.7467,8.13,21.9892a36.1986,36.1986,0,0,1-2.8144,14.399,30.8415,30.8415,0,0,1-8.2085,11.2695,37.7527,37.7527,0,0,1-13.3677,7.2778A58.8481,58.8481,0,0,1,900.3794,786.8979Z" fill="#fff"/><path d="M1009.0586,785.0215V766.103H1023.13V694.8062h-14.0718V675.8877h51.9092v18.9185H1046.896V766.103h14.0718v18.9185Z" fill="#fff"/><path d="M1199.854,767.6665h-.7817a20.7518,20.7518,0,0,1-8.4434,13.7588q-7.1931,5.4713-19.5439,5.4726a42.8118,42.8118,0,0,1-17.5113-3.5961,40.185,40.185,0,0,1-14.228-10.6324,50.3218,50.3218,0,0,1-9.5376-17.5112,77.6733,77.6733,0,0,1-3.44-24.2344,75.99,75.99,0,0,1,3.5962-24.3911,50.24,50.24,0,0,1,10.0849-17.8242,42.625,42.625,0,0,1,15.5571-10.9443,52.2581,52.2581,0,0,1,20.169-3.7525q14.6953,0,25.3291,6.3321,10.6311,6.3324,16.73,18.997l-19.3877,11.1006a26.6086,26.6086,0,0,0-7.8179-10.8662q-5.3166-4.4561-14.8535-4.4561-11.1029,0-17.6675,6.41-6.5668,6.4131-6.5669,20.1694V739.21q0,13.6026,6.5669,20.0914t17.6675,6.4882a32.76,32.76,0,0,0,8.2871-1.0161,20.79,20.79,0,0,0,6.8794-3.1269,15.28,15.28,0,0,0,4.6123-5.0816,14.3211,14.3211,0,0,0,1.6416-7.0356v-5.4727H1176.87V724.2007h42.9966v60.8208H1199.854Z" fill="#fff"/><path d="M1328.39,733.4253l-10.4755-21.8892h-.4693v73.4854h-22.3584V675.8877h25.9546l29.8633,51.5962L1361.38,749.373h.4687V675.8877h22.3584V785.0215h-25.9546Z" fill="#fff"/><path d="M1598.7212,786.8979a54.11,54.11,0,0,1-20.0132-3.518,39.6549,39.6549,0,0,1-15.166-10.4756,48.161,48.161,0,0,1-9.6939-17.355,77.4988,77.4988,0,0,1-3.44-24.313,79.956,79.956,0,0,1,3.44-24.4692,51.1722,51.1722,0,0,1,9.6939-17.9805,40.4068,40.4068,0,0,1,15.166-11.0224,51.1012,51.1012,0,0,1,20.0132-3.7525q15.1641,0,25.0161,6.1758,9.85,6.178,15.792,19.4658l-20.4824,10.6319a24.41,24.41,0,0,0-6.8013-11.023q-4.6135-4.14-13.5244-4.1431-10.4766,0-16.8076,6.8013-6.3326,6.8013-6.3325,19.7783V739.21q0,12.9793,6.3325,19.7784,6.3318,6.8012,16.8076,6.8012,8.7546,0,13.9936-4.7685a28.9809,28.9809,0,0,0,7.7393-11.4917l19.3877,11.2573q-6.0973,12.51-16.0259,19.3091Q1613.885,786.8975,1598.7212,786.8979Z" fill="#fff"/><path d="M1751.0376,786.8979a52.2118,52.2118,0,0,1-19.7007-3.5961,39.6267,39.6267,0,0,1-15.166-10.71,49.6465,49.6465,0,0,1-9.6938-17.6675,88.7464,88.7464,0,0,1,0-48.9384,49.6672,49.6672,0,0,1,9.6938-17.6675,39.6781,39.6781,0,0,1,15.166-10.7105,55.7662,55.7662,0,0,1,39.4009,0,39.6925,39.6925,0,0,1,15.166,10.7105,49.7431,49.7431,0,0,1,9.6939,17.6675,88.7489,88.7489,0,0,1,0,48.9384,49.7223,49.7223,0,0,1-9.6939,17.6675,39.6411,39.6411,0,0,1-15.166,10.71A52.211,52.211,0,0,1,1751.0376,786.8979Zm0-21.1079q10.7878,0,16.8076-7.0356,6.0168-7.0356,6.02-20.1694V722.3242q0-13.1331-6.02-20.1694t-16.8076-7.0357q-10.7886,0-16.8081,7.0357t-6.0195,20.1694V738.585q0,13.1337,6.0195,20.1694Q1740.2463,765.79,1751.0376,765.79Z" fill="#fff"/><path d="M1870.7852,785.0215V675.8877h23.7656v88.0264H1936.14v21.1074Z" fill="#fff"/><path d="M2004.2471,785.0215V675.8877h23.7656v88.0264h41.5894v21.1074Z" fill="#fff"/><path d="M2137.709,785.0215V675.8877h74.2671v21.1074h-50.5015v22.2022h43.31v21.1074h-43.31v23.6094h50.5015v21.1074Z" fill="#fff"/><path d="M2327.4414,786.8979a54.1106,54.1106,0,0,1-20.0132-3.518,39.6549,39.6549,0,0,1-15.166-10.4756,48.1609,48.1609,0,0,1-9.6938-17.355,77.4957,77.4957,0,0,1-3.44-24.313,79.9528,79.9528,0,0,1,3.44-24.4692,51.172,51.172,0,0,1,9.6938-17.9805,40.4068,40.4068,0,0,1,15.166-11.0224,51.1016,51.1016,0,0,1,20.0132-3.7525q15.1641,0,25.0161,6.1758,9.85,6.178,15.792,19.4658l-20.4824,10.6319a24.408,24.408,0,0,0-6.8013-11.023q-4.6136-4.14-13.5244-4.1431-10.4766,0-16.8076,6.8013-6.3326,6.8013-6.3325,19.7783V739.21q0,12.9793,6.3325,19.7784,6.3318,6.8012,16.8076,6.8012,8.7546,0,13.9937-4.7685a28.9807,28.9807,0,0,0,7.7392-11.4917l19.3877,11.2573q-6.0974,12.51-16.0259,19.3091Q2342.6052,786.8975,2327.4414,786.8979Z" fill="#fff"/><path d="M2485.6987,696.9951v88.0264h-23.7656V696.9951h-29.55V675.8877h82.8662v21.1074Z" fill="#fff"/><path d="M2580.8857,785.0215V766.103h14.0718V694.8062h-14.0718V675.8877h51.9092v18.9185h-14.0718V766.103h14.0718v18.9185Z" fill="#fff"/><path d="M2746.1958,786.8979a52.2118,52.2118,0,0,1-19.7007-3.5961,39.6267,39.6267,0,0,1-15.166-10.71,49.6465,49.6465,0,0,1-9.6938-17.6675,88.7464,88.7464,0,0,1,0-48.9384,49.6672,49.6672,0,0,1,9.6938-17.6675,39.6781,39.6781,0,0,1,15.166-10.7105,55.7662,55.7662,0,0,1,39.4009,0,39.6925,39.6925,0,0,1,15.166,10.7105,49.7431,49.7431,0,0,1,9.6939,17.6675,88.7489,88.7489,0,0,1,0,48.9384,49.7223,49.7223,0,0,1-9.6939,17.6675,39.6411,39.6411,0,0,1-15.166,10.71A52.211,52.211,0,0,1,2746.1958,786.8979Zm0-21.1079q10.7879,0,16.8076-7.0356,6.0168-7.0356,6.0195-20.1694V722.3242q0-13.1331-6.0195-20.1694t-16.8076-7.0357q-10.7886,0-16.8081,7.0357t-6.02,20.1694V738.585q0,13.1337,6.02,20.1694Q2735.4045,765.79,2746.1958,765.79Z" fill="#fff"/><path d="M2899.2471,733.4253l-10.4756-21.8892h-.4693v73.4854h-22.3584V675.8877h25.9546l29.8633,51.5962,10.4756,21.8891h.4688V675.8877h22.3584V785.0215H2929.11Z" fill="#fff"/></svg>